<svg xmlns="http://www.w3.org/2000/svg" viewBox="0 0 1000 76" width="1000" height="76" role="img" aria-label="PATROL LOG: ACTIVITY"><title>PATROL LOG: ACTIVITY</title><style>@media (prefers-reduced-motion: reduce){.anim{animation:none!important}}</style><rect x="1" y="1" width="998" height="74" rx="8" fill="#0C0F16" stroke="#1E2432" stroke-width="2"/><path d="M14,14H104L88,62H14Z" fill="#FFD400"/><path d="M100,24L104,24L110,6L118,22Q150,2,196,22Q199,35,185,47L177,39L168,61L157,48L146,66L136,51Q121,57,112,76L100,95L88,76Q79,57 64,51L54,66L43,48L32,61L23,39L15,47Q1,35 4,22Q50,2 82,22L90,6L96,24L100,24Z" fill="#07080C"  transform="translate(27.0 25.5) scale(0.250)"/><path d="M123.9 21.8H131.3Q135.1 21.8 137 23.8Q138.9 25.8 138.9 29.8V32.9Q138.9 36.8 137 38.9Q135.1 40.9 131.3 40.9H128.9V54H123.9ZM131.3 36.3Q132.6 36.3 133.2 35.6Q133.8 34.9 133.8 33.3V29.4Q133.8 27.8 133.2 27.1Q132.6 26.4 131.3 26.4H128.9V36.3ZM148.6 21.8H155.4L160.7 54H155.6L154.7 47.6V47.7H148.9L148 54H143.3ZM154.1 43.3 151.8 27.4H151.7L149.5 43.3ZM170 26.4H164.8V21.8H180.4V26.4H175.1V54H170ZM185.8 21.8H193.3Q197.2 21.8 199 23.6Q200.8 25.4 200.8 29.2V31.2Q200.8 36.2 197.5 37.5V37.6Q199.4 38.2 200.1 39.9Q200.9 41.6 200.9 44.4V50.1Q200.9 51.5 201 52.3Q201.1 53.2 201.4 54H196.3Q196 53.2 195.9 52.5Q195.8 51.8 195.8 50V44.2Q195.8 41.9 195.1 41.1Q194.4 40.2 192.6 40.2H190.9V54H185.8ZM192.7 35.6Q194.2 35.6 195 34.8Q195.8 34 195.8 32.2V29.7Q195.8 28 195.1 27.2Q194.5 26.4 193.2 26.4H190.9V35.6ZM207 46.4V29.4Q207 25.6 209 23.5Q211 21.3 214.7 21.3Q218.4 21.3 220.4 23.5Q222.4 25.6 222.4 29.4V46.4Q222.4 50.2 220.4 52.3Q218.4 54.5 214.7 54.5Q211 54.5 209 52.3Q207 50.2 207 46.4ZM217.3 46.7V29.1Q217.3 25.9 214.7 25.9Q212.1 25.9 212.1 29.1V46.7Q212.1 49.9 214.7 49.9Q217.3 49.9 217.3 46.7ZM228.8 21.8H233.8V49.4H242.2V54H228.8ZM258 21.8H263V49.4H271.3V54H258ZM276.4 46.4V29.4Q276.4 25.6 278.4 23.5Q280.4 21.3 284.1 21.3Q287.8 21.3 289.8 23.5Q291.8 25.6 291.8 29.4V46.4Q291.8 50.2 289.8 52.3Q287.8 54.5 284.1 54.5Q280.4 54.5 278.4 52.3Q276.4 50.2 276.4 46.4ZM286.7 46.7V29.1Q286.7 25.9 284.1 25.9Q281.5 25.9 281.5 29.1V46.7Q281.5 49.9 284.1 49.9Q286.7 49.9 286.7 46.7ZM297.8 46.4V29.4Q297.8 25.5 299.7 23.4Q301.7 21.3 305.4 21.3Q309 21.3 311 23.4Q312.9 25.5 312.9 29.4V32.2H308.1V29.1Q308.1 25.9 305.5 25.9Q302.9 25.9 302.9 29.1V46.7Q302.9 49.9 305.5 49.9Q308.1 49.9 308.1 46.7V40.4H305.6V35.8H312.9V46.4Q312.9 50.3 311 52.4Q309 54.5 305.4 54.5Q301.7 54.5 299.7 52.4Q297.8 50.3 297.8 46.4Z" fill="#F4F6FA" /><path d="M336,36H750" stroke="#FFD400" stroke-width="2" stroke-dasharray="2 7" stroke-linecap="round" opacity=".7"/><path d="M877.7 28.4H881.9L885.1 48H882L881.4 44.1V44.2H877.9L877.4 48H874.5ZM881.1 41.5 879.7 31.8H879.6L878.3 41.5ZM889.4 43.5V32.9Q889.4 30.6 890.5 29.4Q891.7 28.1 893.9 28.1Q896.1 28.1 897.3 29.4Q898.4 30.6 898.4 32.9V35H895.5V32.7Q895.5 30.9 894 30.9Q892.4 30.9 892.4 32.7V43.7Q892.4 45.5 894 45.5Q895.5 45.5 895.5 43.7V40.7H898.4V43.5Q898.4 45.8 897.3 47Q896.1 48.3 893.9 48.3Q891.7 48.3 890.5 47Q889.4 45.8 889.4 43.5ZM905.7 31.2H902.5V28.4H912V31.2H908.8V48H905.7ZM916.5 28.4H919.6V48H916.5ZM924 28.4H927.1L929.2 43.6H929.2L931.2 28.4H934.1L931.1 48H927ZM938.5 28.4H941.6V48H938.5ZM949.3 31.2H946.1V28.4H955.6V31.2H952.4V48H949.3ZM962.9 39.7 959.2 28.4H962.5L964.6 35.6H964.7L966.8 28.4H969.7L966 39.7V48H962.9Z" fill="#8B94A7" /></svg>